<svg width="160" height="21" viewBox="0 0 160 21" fill="none" xmlns="http://www.w3.org/2000/svg">
<g clip-path="url(#clip0_1025_41543)">
<path d="M0 21H4.04478L5.35934 16.7401H13.1889L14.5323 21H18.5771L12.2211 0.552612H6.35608L0 21ZM6.47166 13.1334L9.24522 4.1735L12.0621 13.1334H6.47166Z" fill="#222536"/>
<path d="M21.1659 21.0001H25.1528V7.36851L34.1959 21.0001H38.1829V0.552734H34.1959V14.1843L25.1528 0.552734H21.1659V21.0001Z" fill="#222536"/>
<path d="M42.8506 21.0001H46.7798V17.1378H42.8506V21.0001Z" fill="#222536"/>
<path d="M55.8317 21.0001H59.7029L63.7336 7.19813L67.7636 21.0001H71.6354L77.7313 0.552734H73.5997L69.6995 14.6103L65.7994 0.552734L61.6677 0.581134L57.7676 14.6103L53.8671 0.552734H49.7356L55.8317 21.0001Z" fill="#222536"/>
<path d="M105.533 20.5793H109.503V13.7383H113.926L117.386 20.5793H121.882L118.087 13.0934C119.284 12.5701 120.164 11.7804 120.729 10.7243C121.303 9.65895 121.59 8.43929 121.59 7.06551C121.59 5.36459 121.157 3.91601 120.291 2.71977C119.424 1.52352 118.047 0.785218 116.16 0.504849C115.887 0.45812 115.576 0.430083 115.225 0.420737C114.885 0.402046 114.613 0.3927 114.408 0.3927H105.533V20.5793ZM109.503 10.1776V3.9534H114.233C114.437 3.9534 114.661 3.96274 114.904 3.98144C115.148 4.00012 115.372 4.03751 115.576 4.09359C116.111 4.23377 116.525 4.47208 116.817 4.80853C117.108 5.13562 117.308 5.50478 117.415 5.91598C117.532 6.31785 117.59 6.70105 117.59 7.06551C117.59 7.42997 117.532 7.81786 117.415 8.22902C117.308 8.63089 117.108 9.00005 116.817 9.33649C116.525 9.66359 116.111 9.89725 115.576 10.0374C115.372 10.0935 115.148 10.1309 114.904 10.1496C114.661 10.1683 114.437 10.1776 114.233 10.1776H109.503Z" fill="#222536"/>
<path d="M125.09 20.5793H129.061V11.3832L137.44 20.5793H142.461L133.119 10.3458L141.907 0.3927H137.06L129.061 9.70101V0.3927H125.09V20.5793Z" fill="#222536"/>
<path d="M151.563 21C152.633 21 153.67 20.8691 154.672 20.6075C155.684 20.3458 156.589 19.9533 157.388 19.4299C158.185 18.8972 158.818 18.229 159.285 17.4253C159.762 16.6122 160 15.6636 160 14.5795C160 13.5609 159.801 12.7198 159.402 12.0562C159.012 11.3927 158.512 10.8599 157.898 10.4581C157.295 10.0469 156.662 9.72913 156.001 9.50482C155.339 9.27117 154.736 9.08427 154.19 8.94407L150.541 7.99083C150.093 7.8787 149.656 7.7385 149.228 7.57028C148.799 7.40206 148.444 7.18244 148.162 6.91143C147.879 6.63103 147.739 6.27121 147.739 5.83198C147.739 5.35536 147.909 4.94415 148.249 4.59836C148.6 4.25257 149.048 3.99089 149.592 3.81332C150.147 3.62641 150.736 3.5423 151.359 3.56099C152.312 3.58903 153.188 3.86005 153.986 4.37406C154.784 4.88808 155.3 5.63574 155.533 6.61704L159.825 5.91609C159.319 4.01893 158.336 2.56568 156.876 1.55634C155.416 0.547014 153.597 0.0283293 151.417 0.00029208C149.977 -0.00905404 148.663 0.205896 147.476 0.645142C146.289 1.08439 145.34 1.7526 144.63 2.64979C143.919 3.54697 143.564 4.67312 143.564 6.02827C143.564 6.99084 143.729 7.78989 144.06 8.42542C144.401 9.05155 144.824 9.55622 145.33 9.93941C145.836 10.3226 146.357 10.617 146.892 10.8226C147.437 11.0281 147.913 11.187 148.323 11.2992L153.782 12.8412C154.599 13.0749 155.144 13.3693 155.416 13.7244C155.689 14.0702 155.826 14.4487 155.826 14.8599C155.826 15.4206 155.626 15.8926 155.227 16.2758C154.838 16.6589 154.337 16.9487 153.723 17.1449C153.11 17.3412 152.478 17.4393 151.826 17.4393C150.658 17.4393 149.617 17.1262 148.702 16.5001C147.787 15.8739 147.184 14.9814 146.892 13.8225L142.746 14.4113C142.96 15.7758 143.466 16.9534 144.264 17.9439C145.072 18.9253 146.099 19.6822 147.344 20.215C148.6 20.7383 150.006 21 151.563 21Z" fill="#222536"/>
<mask id="mask0_1025_41543" style="mask-type:alpha" maskUnits="userSpaceOnUse" x="81" y="0" width="22" height="22">
<path d="M91.6303 21.0002C97.4274 21.0002 102.127 16.4229 102.127 10.7765C102.127 5.13006 97.4274 0.552734 91.6303 0.552734C85.8332 0.552734 81.1338 5.13006 81.1338 10.7765C81.1338 16.4229 85.8332 21.0002 91.6303 21.0002Z" fill="#C4C4C4"/>
</mask>
<g mask="url(#mask0_1025_41543)">
<path d="M91.6304 21.0001C97.4274 21.0001 102.127 16.4228 102.127 10.7764C102.127 5.12994 97.4274 0.552612 91.6304 0.552612C85.8333 0.552612 81.1339 5.12994 81.1339 10.7764C81.1339 16.4228 85.8333 21.0001 91.6304 21.0001Z" fill="white"/>
<path d="M69.4271 0.843444C69.4271 0.538233 69.6813 0.289608 69.9945 0.302349C72.0467 0.385857 74.0711 0.921956 75.9712 1.88713C78.0456 2.94114 79.931 4.48588 81.5185 6.43325C83.1066 8.38061 84.3661 10.6925 85.2251 13.2367C86.0274 15.6106 86.466 18.1437 86.521 20.7093C86.5278 21.0145 86.2731 21.262 85.9599 21.262H69.9945C69.6813 21.262 69.4271 21.0145 69.4271 20.7093V0.843444Z" fill="#222536"/>
<path d="M103.42 20.7092C103.42 21.0144 103.166 21.263 102.853 21.2502C100.801 21.1667 98.7762 20.6306 96.8766 19.6655C94.8017 18.6115 92.9169 17.0667 91.3288 15.1193C89.7408 13.172 88.4818 10.8601 87.6222 8.3159C86.8205 5.94196 86.3813 3.40884 86.3263 0.843256C86.32 0.538112 86.5748 0.290649 86.888 0.290649L102.853 0.29065C103.166 0.29065 103.42 0.538071 103.42 0.843283V20.7092Z" fill="#A1CBF2"/>
<path d="M114.284 20.7092C114.284 21.0144 114.029 21.263 113.716 21.2502C111.664 21.1667 109.639 20.6306 107.739 19.6655C105.665 18.6115 103.78 17.0667 102.192 15.1193C100.604 13.172 99.3445 10.8601 98.485 8.3159C97.6833 5.94196 97.2447 3.40884 97.1896 0.843256C97.1828 0.538112 97.4376 0.290649 97.7508 0.290649L113.716 0.29065C114.029 0.29065 114.284 0.538071 114.284 0.843283V20.7092Z" fill="#528BE6"/>
</g>
</g>
<defs>
<clipPath id="clip0_1025_41543">
<rect width="160" height="21" fill="white"/>
</clipPath>
</defs>
</svg>
