<svg width="402" height="54" viewBox="0 0 402 54" fill="none" xmlns="http://www.w3.org/2000/svg">
<g clip-path="url(#clip0_1025_42314)">
<path d="M0 53.9999H10.1625L13.4653 43.046H33.1371L36.5124 53.9999H46.675L30.7054 1.4209H15.9697L0 53.9999ZM16.26 33.7716L23.2286 10.7318L30.3061 33.7716H16.26Z" fill="white"/>
<path d="M53.1797 53.9999H63.1969V18.9472L85.9175 53.9999H95.9348V1.4209H85.9175V36.4736L63.1969 1.4209H53.1797V53.9999Z" fill="white"/>
<path d="M107.66 54H117.532V44.0684H107.66V54Z" fill="white"/>
<path d="M140.275 53.9999H150.002L160.129 18.5091L170.254 53.9999H179.982L195.298 1.4209H184.917L175.118 37.5689L165.319 1.4209L154.939 1.49393L145.139 37.5689L135.339 1.4209H124.959L140.275 53.9999Z" fill="white"/>
<path d="M265.148 52.9183H275.124V35.3271H286.236L294.929 52.9183H306.225L296.69 33.6688C299.698 32.3231 301.91 30.2924 303.328 27.5768C304.771 24.8373 305.492 21.701 305.492 18.1684C305.492 13.7946 304.403 10.0697 302.228 6.99366C300.051 3.9176 296.591 2.0191 291.849 1.29815C291.164 1.17799 290.382 1.10589 289.501 1.08186C288.645 1.0338 287.961 1.00977 287.447 1.00977H265.148V52.9183ZM275.124 26.1709V10.1659H287.008C287.521 10.1659 288.082 10.1899 288.694 10.2379C289.306 10.286 289.869 10.3821 290.382 10.5263C291.726 10.8868 292.765 11.4996 293.499 12.3647C294.232 13.2059 294.734 14.1551 295.002 15.2125C295.296 16.2459 295.442 17.2312 295.442 18.1684C295.442 19.1056 295.296 20.103 295.002 21.1603C294.734 22.1937 294.232 23.143 293.499 24.0081C292.765 24.8492 291.726 25.45 290.382 25.8106C289.869 25.9546 289.306 26.0508 288.694 26.0989C288.082 26.1469 287.521 26.1709 287.008 26.1709H275.124Z" fill="white"/>
<path d="M314.289 52.9183H324.265V29.2711L345.317 52.9183H357.933L334.46 26.6035L356.54 1.00977H344.364L324.265 24.9454V1.00977H314.289V52.9183Z" fill="white"/>
<path d="M380.802 54C383.492 54 386.096 53.6635 388.614 52.9906C391.157 52.3178 393.431 51.3084 395.436 49.9626C397.441 48.5929 399.03 46.8746 400.203 44.8079C401.402 42.7171 402.001 40.2779 402.001 37.4902C402.001 34.8708 401.499 32.7079 400.497 31.0017C399.519 29.2954 398.26 27.9255 396.719 26.8923C395.204 25.8349 393.614 25.0178 391.952 24.441C390.289 23.8401 388.773 23.3595 387.403 22.999L378.234 20.5479C377.11 20.2595 376.011 19.899 374.934 19.4664C373.858 19.0339 372.966 18.4691 372.257 17.7723C371.547 17.0512 371.194 16.126 371.194 14.9965C371.194 13.7709 371.621 12.7135 372.477 11.8244C373.358 10.9352 374.482 10.2623 375.851 9.80569C377.245 9.32505 378.723 9.10876 380.289 9.15684C382.685 9.22893 384.886 9.92585 386.89 11.2476C388.896 12.5693 390.192 14.4919 390.778 17.0153L401.56 15.2128C400.289 10.3344 397.82 6.59745 394.152 4.00203C390.484 1.40661 385.912 0.0728467 380.435 0.000751062C376.817 -0.0232818 373.516 0.529447 370.534 1.65894C367.55 2.78843 365.167 4.5067 363.382 6.81373C361.597 9.12078 360.705 12.0166 360.705 15.5013C360.705 17.9765 361.119 20.0312 361.951 21.6654C362.807 23.2754 363.871 24.5731 365.142 25.5585C366.412 26.5438 367.721 27.3008 369.065 27.8295C370.435 28.3581 371.633 28.7667 372.661 29.0551L386.377 33.0203C388.431 33.6211 389.8 34.3781 390.484 35.2913C391.17 36.1804 391.512 37.1537 391.512 38.2111C391.512 39.653 391.01 40.8666 390.008 41.852C389.03 42.8372 387.771 43.5823 386.23 44.0869C384.689 44.5916 383.101 44.8439 381.462 44.8439C378.528 44.8439 375.912 44.0388 373.614 42.4288C371.315 40.8186 369.799 38.5236 369.065 35.5437L358.65 37.0576C359.188 40.5662 360.459 43.5943 362.464 46.1416C364.494 48.6649 367.074 50.6115 370.203 51.9814C373.358 53.3271 376.89 54 380.802 54Z" fill="white"/>
<mask id="mask0_1025_42314" style="mask-type:alpha" maskUnits="userSpaceOnUse" x="204" y="1" width="53" height="53">
<path d="M251.245 27.2896C251.245 38.7551 241.916 48.0793 230.373 48.0793C218.829 48.0793 209.5 38.7551 209.5 27.2896C209.5 15.8241 218.829 6.5 230.373 6.5C241.916 6.5 251.245 15.8241 251.245 27.2896Z" fill="white" stroke="white" stroke-width="11"/>
</mask>
<g mask="url(#mask0_1025_42314)">
<path d="M230.373 53.5793C244.938 53.5793 256.745 41.809 256.745 27.2896C256.745 12.7703 244.938 1 230.373 1C215.807 1 204 12.7703 204 27.2896C204 41.809 215.807 53.5793 230.373 53.5793Z" fill="white"/>
<path d="M174.586 1.74806C174.586 0.963235 175.225 0.323912 176.011 0.356674C181.168 0.571411 186.254 1.94995 191.028 4.43183C196.24 7.14215 200.977 11.1143 204.965 16.1219C208.956 21.1294 212.12 27.0742 214.278 33.6164C216.294 39.7208 217.396 46.2345 217.534 52.8318C217.552 53.6165 216.911 54.2528 216.125 54.2528H176.011C175.225 54.2528 174.586 53.6166 174.586 52.8318V1.74806Z" fill="#222536"/>
<path d="M259.996 52.8309C259.996 53.6158 259.357 54.2551 258.57 54.2223C253.414 54.0075 248.328 52.629 243.555 50.1471C238.342 47.4369 233.606 43.4646 229.616 38.4571C225.626 33.4496 222.463 27.5048 220.303 20.9625C218.289 14.8581 217.185 8.34438 217.047 1.74716C217.031 0.962504 217.672 0.326172 218.458 0.326172L258.57 0.326173C259.357 0.326173 259.996 0.9624 259.996 1.74723V52.8309Z" fill="#A1CBF2"/>
<path d="M287.287 52.8309C287.287 53.6158 286.648 54.2551 285.861 54.2223C280.705 54.0075 275.617 52.629 270.845 50.1471C265.633 47.4369 260.896 43.4646 256.907 38.4571C252.917 33.4496 249.752 27.5048 247.593 20.9625C245.578 14.8581 244.477 8.34438 244.338 1.74716C244.321 0.962504 244.961 0.326172 245.748 0.326172L285.861 0.326173C286.648 0.326173 287.287 0.9624 287.287 1.74723V52.8309Z" fill="#528BE6"/>
</g>
</g>
<defs>
<clipPath id="clip0_1025_42314">
<rect width="402" height="54" fill="white"/>
</clipPath>
</defs>
</svg>
