<svg width="32" height="32" viewBox="0 0 32 32" fill="none" xmlns="http://www.w3.org/2000/svg">
<g clip-path="url(#clip0_1153_44118)">
<rect width="32" height="32" fill="transparent"/>
<mask id="mask0_1153_44118" style="mask-type:alpha" maskUnits="userSpaceOnUse" x="-1" y="0" width="33" height="32">
<path d="M26.4998 15.9995C26.4998 21.798 21.799 26.499 15.9998 26.499C10.2006 26.499 5.49969 21.798 5.49969 15.9995C5.49969 10.2009 10.2006 5.49997 15.9998 5.49997C21.799 5.49997 26.4998 10.2009 26.4998 15.9995Z" fill="white" stroke="white" stroke-width="11"/>
</mask>
<g mask="url(#mask0_1153_44118)">
<path d="M15.9998 31.999C24.8364 31.999 31.9998 24.8358 31.9998 15.9995C31.9998 7.16319 24.8364 -3.05176e-05 15.9998 -3.05176e-05C7.16317 -3.05176e-05 -0.000305176 7.16319 -0.000305176 15.9995C-0.000305176 24.8358 7.16317 31.999 15.9998 31.999Z" fill="white"/>
<path d="M-17.8459 0.455179C-17.8459 -0.0224558 -17.4584 -0.411539 -16.981 -0.3916C-13.8528 -0.260915 -10.767 0.578046 -7.87055 2.08849C-4.70861 3.73795 -1.83466 6.15535 0.585228 9.20287C3.00598 12.2504 4.92598 15.8683 6.23539 19.8498C7.4583 23.5649 8.12684 27.529 8.21073 31.544C8.22111 32.0216 7.83279 32.4088 7.35538 32.4088H-16.981C-17.4584 32.4088 -17.8459 32.0217 -17.8459 31.544V0.455179Z" fill="#222536"/>
<path d="M33.9723 31.5436C33.9723 32.0212 33.5848 32.4103 33.1074 32.3903C29.9792 32.2597 26.8934 31.4207 23.9978 29.9103C20.835 28.2609 17.962 25.8434 15.5412 22.7959C13.1204 19.7484 11.2013 16.1304 9.89106 12.1489C8.669 8.43387 7.99959 4.46971 7.9157 0.454728C7.90618 -0.0228021 8.29451 -0.410065 8.77192 -0.410065L33.1074 -0.410064C33.5848 -0.410064 33.9723 -0.0228651 33.9723 0.454772V31.5436Z" fill="#A1CBF2"/>
<path d="M50.5294 31.5436C50.5294 32.0212 50.1419 32.4103 49.6645 32.3903C46.5363 32.2597 43.4496 31.4207 40.5541 29.9103C37.3921 28.2609 34.5182 25.8434 32.0983 22.7959C29.6775 19.7484 27.7576 16.1304 26.4473 12.1489C25.2252 8.43387 24.5567 4.46971 24.4728 0.454728C24.4624 -0.0228021 24.8507 -0.410065 25.3281 -0.410065L49.6645 -0.410064C50.1419 -0.410064 50.5294 -0.0228651 50.5294 0.454772V31.5436Z" fill="#528BE6"/>
</g>
</g>
<defs>
<clipPath id="clip0_1153_44118">
<rect width="32" height="32" fill="transparent"/>
</clipPath>
</defs>
</svg>
